<?xml version="1.0" encoding="utf-8"?>
<!-- Generator: Adobe Illustrator 25.2.3, SVG Export Plug-In . SVG Version: 6.00 Build 0)  -->
<svg version="1.1" id="Layer_1" xmlns="http://www.w3.org/2000/svg" xmlns:xlink="http://www.w3.org/1999/xlink" x="0px" y="0px"
	 viewBox="0 0 32 32" style="enable-background:new 0 0 32 32;" xml:space="preserve">
<style type="text/css">
	.st0{fill:#314D5D;}
</style>
<g>
	<path class="st0" d="M5.9,20.1c0,0.5,0.3,0.8,0.8,0.8h20.9c0.5,0,0.8-0.3,0.8-0.8s-0.3-0.8-0.8-0.8h-20v-1.7h15.9
		c0.4,0,0.8-0.3,0.8-0.7l2.5-10c0.1-0.3,0-0.5-0.2-0.8c-0.2-0.3-0.4-0.3-0.7-0.3H7.6V3.4c0-0.5-0.3-0.8-0.8-0.8H3.4
		c-0.5,0-0.8,0.3-0.8,0.8s0.3,0.8,0.8,0.8h2.5V20.1z"/>
	<circle class="st0" cx="8.4" cy="25.9" r="2.5"/>
	<circle class="st0" cx="25.9" cy="25.9" r="2.5"/>
</g>
</svg>
